# xmcd
#
# Track frame offsets:
#	150
#	19160
#	42822
#
# Disc length: 702 seconds
#
# Revision: 2
# Processed by: cddbd v1.5.1PL0 Copyright (c) Steve Scherf et al.
# Submitted via: EasyCDDAExtractor 8.0.1.1
#
DISCID=1a02bc03
DTITLE=Marc Cohn - Ghost Train - single
DYEAR=1991
DGENRE=Blues
TTITLE0=Ghost Train
TTITLE1=Walking in Memphis (Live Version)
TTITLE2=Angelsong
EXTD=YEAR: 1991 ID3G:   0
EXTT0=
EXTT1=
EXTT2=
PLAYORDER=
